<svg width="16" height="17" viewBox="0 0 16 17" fill="none" xmlns="http://www.w3.org/2000/svg">
<path d="M8.707 1.13922C8.51947 0.951751 8.26517 0.846436 8 0.846436C7.73484 0.846436 7.48053 0.951751 7.293 1.13922L0.293003 8.13922C0.110845 8.32782 0.0100503 8.58043 0.0123288 8.84262C0.0146072 9.10482 0.119776 9.35563 0.305184 9.54104C0.490592 9.72645 0.741405 9.83162 1.0036 9.8339C1.2658 9.83617 1.5184 9.73538 1.707 9.55322L2 9.26022V15.8462C2 16.1114 2.10536 16.3658 2.2929 16.5533C2.48043 16.7409 2.73479 16.8462 3 16.8462H5C5.26522 16.8462 5.51957 16.7409 5.70711 16.5533C5.89465 16.3658 6 16.1114 6 15.8462V13.8462C6 13.581 6.10536 13.3267 6.2929 13.1391C6.48043 12.9516 6.73479 12.8462 7 12.8462H9C9.26522 12.8462 9.51957 12.9516 9.70711 13.1391C9.89465 13.3267 10 13.581 10 13.8462V15.8462C10 16.1114 10.1054 16.3658 10.2929 16.5533C10.4804 16.7409 10.7348 16.8462 11 16.8462H13C13.2652 16.8462 13.5196 16.7409 13.7071 16.5533C13.8946 16.3658 14 16.1114 14 15.8462V9.26022L14.293 9.55322C14.4816 9.73538 14.7342 9.83617 14.9964 9.8339C15.2586 9.83162 15.5094 9.72645 15.6948 9.54104C15.8802 9.35563 15.9854 9.10482 15.9877 8.84262C15.99 8.58043 15.8892 8.32782 15.707 8.13922L8.707 1.13922Z" fill="#E50914"/>
</svg>
