<svg width="16" height="18" viewBox="0 0 16 18" fill="none" xmlns="http://www.w3.org/2000/svg">
<path fill-rule="evenodd" clip-rule="evenodd" d="M0.166 3.84528C3.06114 3.80928 5.84481 2.72374 8 0.790283C10.155 2.72411 12.9387 3.81001 15.834 3.84628C15.944 4.49628 16 5.16628 16 5.84728C16 11.0723 12.66 15.5173 8 17.1643C3.34 15.5163 0 11.0713 0 5.84628C0 5.16428 0.0569999 4.49628 0.166 3.84528ZM11.707 7.55328C11.8892 7.36468 11.99 7.11208 11.9877 6.84988C11.9854 6.58769 11.8802 6.33687 11.6948 6.15146C11.5094 5.96606 11.2586 5.86089 10.9964 5.85861C10.7342 5.85633 10.4816 5.95713 10.293 6.13928L7 9.43228L5.707 8.13928C5.5184 7.95713 5.2658 7.85633 5.0036 7.85861C4.7414 7.86089 4.49059 7.96606 4.30518 8.15146C4.11977 8.33687 4.0146 8.58769 4.01233 8.84988C4.01005 9.11208 4.11084 9.36468 4.293 9.55328L6.293 11.5533C6.48053 11.7408 6.73484 11.8461 7 11.8461C7.26516 11.8461 7.51947 11.7408 7.707 11.5533L11.707 7.55328Z" fill="#6B6B68"/>
</svg>
